HIERARCHY
ROOT Hips
{
 OFFSET 0.000000 0.000000 0.000000
 CHANNELS 6 Xposition Yposition Zposition Yrotation Xrotation Zrotation
 JOINT Chest
 {
  OFFSET 0.000000 9.581000 -0.001100
  CHANNELS 3 Yrotation Xrotation Zrotation
  JOINT Chest2
  {
   OFFSET 0.000000 9.561100 0.002200
   CHANNELS 3 Yrotation Xrotation Zrotation
   JOINT Chest3
   {
    OFFSET 0.000000 9.521100 0.000000
    CHANNELS 3 Yrotation Xrotation Zrotation
    JOINT Chest4
    {
     OFFSET 0.000000 9.511400 0.000000
     CHANNELS 3 Yrotation Xrotation Zrotation
     JOINT Neck
     {
      OFFSET 0.000000 14.375100 0.000000
      CHANNELS 3 Yrotation Xrotation Zrotation
      JOINT Head
      {
       OFFSET 0.000000 8.901200 0.004600
       CHANNELS 3 Yrotation Xrotation Zrotation
       End Site
       {
        OFFSET 0.000000 16.962200 0.002400
       }
      }
     }
     JOINT RightCollar
     {
      OFFSET -2.920100 9.518800 0.000000
      CHANNELS 3 Yrotation Xrotation Zrotation
      JOINT RightShoulder
      {
       OFFSET -13.664500 0.000000 0.000000
       CHANNELS 3 Yrotation Xrotation Zrotation
       JOINT RightElbow
       {
        OFFSET 0.000000 -29.999200 0.000000
        CHANNELS 3 Yrotation Xrotation Zrotation
        JOINT RightWrist
        {
         OFFSET 0.000000 -24.253600 0.000000
         CHANNELS 3 Yrotation Xrotation Zrotation
         End Site
         {
          OFFSET 0.000000 -17.918900 0.000000
         }
        }
       }
      }
     }
     JOINT LeftCollar
     {
      OFFSET 2.920100 9.518800 0.000000
      CHANNELS 3 Yrotation Xrotation Zrotation
      JOINT LeftShoulder
      {
       OFFSET 13.664500 0.000000 0.000000
       CHANNELS 3 Yrotation Xrotation Zrotation
       JOINT LeftElbow
       {
        OFFSET 0.000000 -29.999200 0.000000
        CHANNELS 3 Yrotation Xrotation Zrotation
        JOINT LeftWrist
        {
         OFFSET 0.000000 -24.253600 0.000000
         CHANNELS 3 Yrotation Xrotation Zrotation
         End Site
         {
          OFFSET 0.000000 -17.918900 0.000000
         }
        }
       }
      }
     }
    }
   }
  }
 }
 JOINT RightHip
 {
  OFFSET -7.797300 0.005300 0.000500
  CHANNELS 3 Yrotation Xrotation Zrotation
  JOINT RightKnee
  {
   OFFSET 0.000000 -40.663400 -0.000500
   CHANNELS 3 Yrotation Xrotation Zrotation
   JOINT RightAnkle
   {
    OFFSET 0.000000 -39.523700 -0.000900
    CHANNELS 3 Yrotation Xrotation Zrotation
    JOINT RightToe
    {
     OFFSET 0.000000 -6.418000 14.485300
     CHANNELS 3 Yrotation Xrotation Zrotation
     End Site
     {
      OFFSET 0.000000 -1.465200 6.326400
     }
    }
   }
  }
 }
 JOINT LeftHip
 {
  OFFSET 7.797300 0.005300 0.000500
  CHANNELS 3 Yrotation Xrotation Zrotation
  JOINT LeftKnee
  {
   OFFSET 0.000000 -40.663400 -0.000500
   CHANNELS 3 Yrotation Xrotation Zrotation
   JOINT LeftAnkle
   {
    OFFSET 0.000000 -39.523700 -0.000900
    CHANNELS 3 Yrotation Xrotation Zrotation
    JOINT LeftToe
    {
     OFFSET 0.000000 -6.418000 14.485300
     CHANNELS 3 Yrotation Xrotation Zrotation
     End Site
     {
      OFFSET 0.000000 -1.465200 6.326400
     }
    }
   }
  }
 }
}
MOTION
Frames: 7
Frame Time: 0.008333
0.000000 86.422400 0.000000 0.000000 -5.767877 0.000000 0.000000 11.653817 0.000000 0.000000 -5.885947 0.000000 0.000000 -0.000000 0.000000 0.000000 -0.000000 0.000000 0.000000 12.528835 0.000000 0.000000 0.711642 0.000000 0.000000 -0.000000 0.000000 0.000000 0.000000 -90.000000 0.000000 -2.309062 0.000000 0.000000 2.309062 0.000000 0.000000 -0.000000 0.000000 0.000000 -0.000000 90.000000 0.000000 -2.309062 0.000000 0.000000 2.309062 0.000000 0.000000 8.520406 0.000000 0.000000 1.905762 0.000000 -0.000000 -4.658285 0.000000 0.000000 -0.000000 0.000000 0.000000 8.520406 0.000000 0.000000 1.905762 0.000000 -0.000000 -4.658285 0.000000 0.000000 -0.000000 0.000000
-21.751530 126.620458 71.756738 178.992459 -33.230218 -3.337946 0.181994 18.647143 1.145282 0.010586 2.109848 0.122503 0.012597 3.518480 0.208294 0.150523 16.164183 0.982257 3.283674 21.913824 0.633524 3.398914 -2.405958 -0.165719 -11.718390 0.483506 -0.956110 -26.952442 -2.003134 -3.680726 -87.679043 -20.955828 72.286168 -27.545504 -2.563761 -8.994532 -2.145828 0.708007 4.240184 24.763605 -8.375839 -0.250669 75.735830 -25.790524 -71.261450 23.454472 -29.759945 22.817084 -7.127550 -44.306849 -0.492021 -146.112808 68.575215 -138.578520 6.438738 -24.507861 -3.569492 -0.003168 0.001155 -0.001404 -17.017965 -47.979453 -1.400577 25.740275 62.693902 15.515310 -4.506063 38.495106 -2.743898 0.010626 0.003773 0.004709
-21.753035 126.622441 71.758415 179.015083 -33.264625 -3.338630 0.192608 18.580543 1.125844 -0.013272 2.182567 0.133338 0.024294 3.473746 0.196812 0.142142 16.202079 0.986627 3.287597 21.887225 0.609847 3.402420 -2.407097 -0.169149 -11.716174 0.409985 -0.979544 -26.882799 -1.909660 -3.646831 -87.651317 -21.062229 72.272236 -27.513836 -2.576271 -9.041635 -2.167589 0.651003 4.214339 24.647204 -8.381649 -0.234010 75.708340 -26.019905 -71.242698 23.412134 -29.670243 22.766460 -7.145858 -44.274203 -0.492623 -146.128241 68.567876 -138.620295 6.438461 -24.527265 -3.565289 -0.010402 0.001460 -0.004609 -16.934522 -47.930340 -1.433624 25.584000 62.717671 15.361814 -4.497982 38.482469 -2.727873 0.026479 0.002724 0.011733
-21.754834 126.623038 71.762592 179.021069 -33.287029 -3.329544 0.199577 18.557667 1.109977 -0.009569 2.175904 0.132763 0.013551 3.498199 0.199144 0.142397 16.196216 0.979516 3.288860 21.856306 0.585868 3.403469 -2.421379 -0.173848 -11.704003 0.388756 -0.986127 -26.811797 -1.877822 -3.609031 -87.639290 -21.157061 72.272677 -27.489539 -2.595652 -9.104849 -2.191964 0.611220 4.192063 24.534221 -8.401265 -0.222960 75.682466 -26.238400 -71.232280 23.361813 -29.577255 22.727570 -7.171625 -44.256762 -0.453226 -146.090041 68.554026 -138.620067 6.414905 -24.556426 -3.566617 -0.004731 0.003868 -0.002096 -16.903589 -47.905095 -1.450272 25.464604 62.756932 15.206459 -4.413748 38.454290 -2.677494 0.005207 0.006250 0.002307
-21.756157 126.623812 71.766645 179.020056 -33.312892 -3.320554 0.214851 18.542962 1.097744 -0.013371 2.167595 0.130802 0.008064 3.520290 0.203014 0.144563 16.161644 0.957113 3.287290 21.794322 0.550656 3.408693 -2.393074 -0.145305 -11.688791 0.398036 -0.980075 -26.732115 -1.853506 -3.576907 -87.643395 -21.230680 72.286627 -27.478740 -2.629546 -9.179723 -2.208337 0.636434 4.202028 24.422723 -8.443034 -0.238492 75.655087 -26.423281 -71.237001 23.303810 -29.491981 22.698922 -7.158775 -44.240666 -0.409106 -146.040729 68.524602 -138.584963 6.359224 -24.586310 -3.558722 0.009538 0.004900 0.004226 -16.873965 -47.866643 -1.431194 25.146845 62.833232 14.830682 -4.264132 38.399529 -2.605565 -0.018938 0.016145 -0.008393
-21.759505 126.626309 71.767680 179.067295 -33.356640 -3.326577 0.179818 18.570313 1.075108 -0.005157 2.142722 0.125836 0.006725 3.516323 0.199718 0.136369 16.154020 0.941603 3.290104 21.760021 0.540757 3.412565 -2.406131 -0.138661 -11.667187 0.398647 -0.968450 -26.648754 -1.837014 -3.553559 -87.655828 -21.280423 72.309137 -27.482684 -2.685766 -9.251395 -2.222021 0.656815 4.211563 24.316987 -8.481665 -0.252709 75.627598 -26.570082 -71.261162 23.244876 -29.414734 22.678280 -7.164731 -44.198268 -0.434521 -146.091020 68.525713 -138.639347 6.329774 -24.610786 -3.561125 0.006813 0.001820 0.003019 -16.903071 -47.818318 -1.433094 25.036261 62.860435 14.673357 -4.234329 38.383765 -2.593176 -0.018573 0.014141 -0.008231
-21.760370 126.625361 71.773967 179.080628 -33.362559 -3.329716 0.175745 18.560154 1.068094 0.013990 2.102004 0.111115 0.009017 3.503384 0.192592 0.124586 16.143547 0.922265 3.301453 21.802959 0.585309 3.413104 -2.473433 -0.156854 -11.645605 0.422292 -0.937041 -26.571002 -1.824724 -3.540667 -87.670669 -21.309900 72.337309 -27.486936 -2.773910 -9.323102 -2.284404 0.615632 4.189609 24.242554 -8.457535 -0.181022 75.597059 -26.683262 -71.299639 23.192782 -29.343996 22.662837 -7.162210 -44.192816 -0.433029 -146.128777 68.523522 -138.677966 6.304987 -24.643569 -3.561057 -0.000078 0.004900 -0.000035 -16.966551 -47.808486 -1.382588 25.020194 62.872014 14.605002 -4.256617 38.377913 -2.615488 -0.014531 0.009460 -0.006439
